<?xml version="1.0" standalone="no"?>
<!DOCTYPE svg PUBLIC "-//W3C//DTD SVG 20010904//EN"
 "http://www.w3.org/TR/2001/REC-SVG-20010904/DTD/svg10.dtd">
<svg version="1.0" xmlns="http://www.w3.org/2000/svg"
 width="700.000000pt" height="700.000000pt" viewBox="0 0 700.000000 700.000000"
 preserveAspectRatio="xMidYMid meet">
<metadata>
Created by potrace 1.14, written by Peter Selinger 2001-2017
</metadata>
<g transform="translate(0.000000,700.000000) scale(0.100000,-0.100000)"
fill="#000000" stroke="none">
<path d="M5946 6462 c-274 -269 -463 -449 -594 -564 l-122 -108 -88 0 c-49 0
-142 -3 -208 -6 l-119 -7 -143 336 c-95 222 -153 344 -170 360 -40 38 -126 73
-227 94 -132 26 -486 23 -733 -6 -921 -109 -1903 -436 -2056 -684 l-29 -47 52
-431 c29 -237 49 -435 44 -439 -4 -3 -60 -29 -123 -56 -153 -65 -498 -235
-646 -319 -680 -387 -929 -732 -704 -978 87 -94 208 -151 431 -201 175 -39
357 -57 648 -64 l263 -7 62 -98 c70 -112 148 -211 183 -234 23 -15 25 -14 94
58 l70 74 -6 -113 c-3 -62 -10 -136 -16 -165 -15 -71 -76 -193 -168 -334 -42
-65 -81 -124 -86 -132 -7 -12 4 -13 69 -8 42 4 98 12 124 18 56 14 180 69 223
99 16 12 32 20 35 18 6 -7 -34 -126 -69 -198 -37 -78 -131 -177 -202 -212 -28
-13 -78 -33 -113 -43 -38 -11 -58 -21 -50 -25 43 -23 224 -45 373 -45 l161 0
77 38 c93 46 192 140 250 238 l39 64 -6 -115 c-6 -130 -22 -198 -71 -305 -39
-87 -129 -243 -191 -332 -24 -35 -41 -63 -39 -63 3 0 48 14 101 31 191 61 315
130 427 237 37 36 67 61 67 56 0 -25 -52 -219 -79 -296 -34 -96 -138 -348
-195 -472 -20 -44 -35 -80 -33 -82 6 -7 226 94 297 137 91 54 182 138 251 231
61 81 59 83 94 -56 23 -90 37 -178 50 -319 l7 -67 -49 0 c-65 0 -109 -28 -135
-87 -18 -40 -20 -59 -15 -133 8 -101 41 -240 62 -256 17 -13 277 -49 455 -64
263 -22 530 -6 825 50 165 32 318 70 333 84 17 17 35 178 29 253 -10 102 -50
155 -127 168 -45 8 -45 10 -26 80 25 95 77 162 151 196 88 41 112 19 126 -112
13 -123 51 -267 91 -343 44 -84 151 -187 304 -290 70 -47 129 -84 132 -82 2 3
-12 40 -32 84 -46 102 -76 218 -76 294 0 68 20 198 30 198 4 0 12 -19 19 -42
19 -63 58 -126 120 -192 52 -55 164 -146 180 -146 4 0 4 30 0 68 -21 184 -3
415 40 515 11 25 76 120 146 212 70 92 136 183 147 202 25 42 48 132 48 191
l0 42 -59 0 -58 0 -6 98 c-4 53 -10 149 -13 212 l-7 115 95 12 c107 12 168 38
186 78 25 54 7 172 -49 324 -11 29 -18 55 -16 57 1 2 48 -15 102 -38 120 -49
226 -63 271 -34 36 24 57 79 49 130 -8 52 -61 159 -117 233 -83 113 -333 386
-617 675 -96 98 -173 180 -170 182 2 2 31 17 64 34 177 89 232 217 158 362
l-31 59 91 68 c51 37 130 100 177 139 47 39 133 101 192 137 295 180 506 389
565 560 11 32 18 86 20 142 1 82 6 100 50 210 102 250 157 501 179 823 6 99 6
104 -16 127 -13 14 -28 25 -34 25 -6 0 -33 -39 -61 -88 -77 -135 -241 -376
-335 -492 -133 -165 -203 -245 -215 -243 -5 0 -62 10 -125 21 -132 24 -289 42
-354 42 -25 0 -47 4 -51 10 -3 5 25 62 62 127 107 189 313 630 313 671 0 22
-19 42 -39 42 -8 0 -91 -76 -185 -168z m-1666 43 c90 -19 173 -57 192 -88 8
-12 76 -170 152 -352 76 -181 158 -376 183 -433 25 -57 43 -105 41 -107 -1 -2
-85 -53 -184 -113 l-182 -111 -93 110 c-90 107 -114 124 -125 94 -11 -28 102
-221 203 -347 63 -79 76 -64 -125 -142 -161 -63 -355 -127 -577 -191 -413
-118 -719 -176 -1083 -205 -141 -11 -557 -19 -565 -10 -2 3 -2 24 1 46 4 38 7
42 44 53 49 15 46 23 -4 12 -42 -10 -48 -7 -48 25 0 17 13 30 50 50 62 34 59
42 -4 14 -57 -24 -53 -24 -59 -2 -4 13 -5 12 -6 -5 -1 -14 -11 -25 -32 -32
-45 -16 -47 -15 -52 22 -4 31 -4 31 -5 -6 -2 -32 -7 -40 -34 -53 l-33 -15 33
6 c30 6 32 5 32 -24 0 -25 -6 -34 -32 -45 l-33 -14 40 1 c31 2 40 -2 43 -17 4
-17 -1 -18 -60 -13 -222 21 -308 31 -317 36 -5 4 -40 268 -77 588 l-67 582 22
35 c73 118 407 281 842 411 428 128 849 209 1334 259 22 2 146 2 275 1 171 -2
256 -8 310 -20z m1760 -70 c0 -16 -111 -260 -166 -363 -111 -211 -188 -324
-344 -506 -114 -134 -352 -378 -567 -583 l-166 -158 -44 50 c-78 87 -247 291
-281 338 l-33 47 28 -6 c24 -5 58 11 187 85 251 146 460 281 607 392 107 81
351 302 574 522 171 168 205 198 205 182z m874 -107 c-14 -131 -47 -322 -75
-437 -29 -118 -115 -371 -126 -371 -3 0 -26 18 -51 41 -53 46 -130 87 -212
114 -30 10 -59 21 -64 26 -5 5 20 39 60 81 147 155 342 403 426 543 18 30 36
55 40 55 4 0 5 -24 2 -52z m-1805 -626 c-64 -49 -188 -132 -197 -132 -5 0 -23
31 -40 69 l-30 70 31 4 c18 2 83 5 146 5 112 2 113 2 90 -16z m791 8 c500 -46
761 -155 785 -329 9 -63 -15 -155 -57 -230 -70 -122 -266 -295 -500 -440 -714
-446 -2293 -977 -3506 -1180 -546 -92 -966 -131 -1400 -131 -461 0 -763 45
-961 143 -297 146 -276 382 61 677 95 83 286 217 438 307 104 61 235 133 244
133 3 0 6 -9 6 -19 0 -35 61 -195 121 -316 62 -126 135 -231 264 -378 42 -49
74 -91 71 -94 -9 -9 -367 14 -444 28 -48 9 -66 9 -75 0 -9 -9 -8 -14 3 -21 21
-13 127 -36 257 -57 152 -24 549 -24 723 1 422 59 1007 220 1420 391 142 58
160 69 144 85 -6 6 -65 -9 -164 -41 l-155 -49 -93 16 c-51 9 -91 18 -88 21 2
2 80 19 172 38 234 46 405 85 707 161 637 158 874 245 1078 395 77 56 114 106
137 181 16 50 35 73 252 289 129 129 271 278 314 332 90 110 70 102 246 87z
m-4321 -877 c7 -54 14 -117 18 -140 4 -33 2 -43 -9 -43 -12 0 -13 -12 -6 -67
4 -37 6 -69 4 -71 -7 -6 -242 61 -405 116 l-144 48 44 26 c24 14 130 66 234
115 235 110 239 111 246 112 4 1 12 -43 18 -96z m515 -89 c11 -28 7 -35 -29
-50 -45 -19 -45 -19 -45 15 0 23 6 32 28 39 37 14 39 14 46 -4z m6 -99 c0 -33
-2 -35 -35 -35 -31 0 -35 3 -35 25 0 17 7 29 23 35 39 16 47 12 47 -25z m3760
-169 c0 -3 -39 -37 -87 -76 l-87 -71 -20 20 c-11 11 -18 22 -15 25 4 3 201
104 207 105 1 1 2 -1 2 -3z m-1260 -648 c41 -6 76 -12 76 -12 1 -1 -4 -30 -12
-66 -18 -85 -17 -219 1 -297 8 -34 29 -93 46 -132 18 -40 30 -74 27 -76 -8 -9
-202 -46 -214 -41 -14 6 -49 106 -69 201 -24 116 -18 281 15 405 10 36 14 41
33 36 12 -4 56 -11 97 -18z m306 -1409 c154 -76 356 -121 679 -150 66 -6 122
-13 125 -16 6 -5 28 -321 29 -411 l1 -63 -52 3 -51 3 -74 130 c-40 72 -74 134
-76 139 -1 4 -35 -8 -75 -28 -39 -20 -78 -36 -86 -36 -7 0 -47 41 -87 90 -40
50 -75 90 -77 90 -3 0 -29 -13 -59 -30 -29 -16 -57 -30 -62 -30 -5 0 -30 34
-56 75 l-46 75 -37 -16 c-74 -33 -75 -32 -115 43 -54 100 -50 96 -80 82 -15
-7 -30 -10 -33 -6 -5 5 -33 183 -34 214 0 7 37 -15 83 -48 45 -33 127 -82 183
-110z m-377 -1560 c17 -6 36 -20 42 -30 11 -21 14 -225 4 -251 -4 -9 -16 -18
-28 -21 -456 -98 -553 -111 -832 -110 -217 0 -357 11 -577 44 l-76 11 -16 67
c-34 148 -28 248 15 272 25 13 75 9 219 -17 89 -16 157 -19 450 -18 349 0 532
13 695 49 33 7 63 13 66 14 3 1 20 -4 38 -10z"/>
<path d="M3779 6390 c-3 -20 -13 -27 -49 -37 l-45 -11 43 -1 c37 -1 42 -4 42
-24 0 -19 -8 -26 -37 -34 l-38 -10 38 -2 c21 0 37 -6 37 -13 0 -6 6 -4 13 5 6
9 27 21 45 26 27 8 32 7 32 -7 0 -13 2 -13 14 3 8 11 45 30 83 42 51 17 58 21
28 17 -22 -3 -50 -8 -62 -11 -26 -6 -30 8 -10 29 9 8 11 21 6 33 -4 11 -8 14
-8 7 -1 -15 -34 -29 -81 -34 -29 -3 -35 1 -41 22 l-6 25 -4 -25z m101 -45 c0
-15 -14 -23 -67 -39 -19 -6 -23 -4 -23 13 0 15 10 22 43 29 23 6 43 10 45 11
1 1 2 -6 2 -14z"/>
<path d="M4444 6319 c-66 -70 -254 -168 -494 -257 -730 -273 -1916 -458 -2315
-362 -54 13 -65 12 -65 -4 0 -19 131 -53 265 -67 69 -7 184 -9 310 -6 668 20
1512 217 2028 473 193 96 342 213 310 245 -5 5 -21 -3 -39 -22z"/>
<path d="M2900 6085 c-52 -33 -60 -35 -142 -35 -52 0 -88 -4 -88 -10 0 -6 29
-10 68 -10 l67 0 -25 -21 c-21 -17 -35 -19 -85 -15 l-60 5 38 -17 c36 -16 37
-18 20 -36 -18 -18 -17 -18 16 -1 25 12 46 15 78 10 l44 -6 -45 -35 c-26 -19
-46 -37 -46 -39 0 -3 29 13 65 35 58 35 70 39 112 35 44 -5 46 -4 19 6 l-29
12 44 23 c24 13 62 24 84 25 24 1 31 3 18 6 -31 6 -29 14 12 42 50 34 36 38
-17 5 -43 -28 -74 -31 -132 -16 l-29 8 43 32 c58 42 39 41 -30 -3z m40 -64
c22 -6 19 -9 -33 -30 -42 -17 -66 -21 -93 -16 l-36 6 33 24 c34 24 79 30 129
16z"/>
<path d="M1918 5967 c12 -13 22 -26 22 -29 0 -4 -23 -14 -51 -23 -41 -14 -53
-15 -59 -5 -6 9 -9 8 -12 -6 -3 -16 11 -23 79 -45 98 -32 168 -46 139 -28 -17
11 -16 13 15 26 21 9 49 12 74 9 37 -6 38 -5 16 8 l-24 13 24 17 c28 19 18 21
-27 4 -27 -9 -40 -8 -79 6 l-46 18 35 24 c20 14 36 27 36 29 0 5 -42 -10 -72
-26 -16 -9 -26 -7 -49 10 -37 28 -48 27 -21 -2z m93 -66 l43 -20 -27 -10 c-37
-14 -53 -14 -107 3 -37 11 -41 15 -25 21 11 4 29 10 40 15 28 12 28 12 76 -9z"/>
<path d="M4272 5915 c-6 -92 -12 -103 -67 -134 -68 -38 -79 -55 -17 -25 64 32
72 30 72 -11 0 -28 -5 -38 -22 -45 -23 -9 -23 -9 -2 -9 16 -1 24 -10 30 -33
l8 -33 3 37 c3 30 9 37 31 43 15 3 35 8 44 11 15 4 15 1 3 -47 -16 -61 -5 -54
20 13 16 43 22 49 66 63 74 25 58 31 -23 8 -15 -4 -17 1 -12 29 9 44 13 47 75
64 l54 13 -58 -4 -58 -5 6 37 c5 38 5 38 -6 8 -17 -43 -26 -52 -62 -58 -17 -4
-42 -9 -54 -13 -21 -6 -22 -3 -26 57 -2 35 -4 51 -5 34z m118 -109 c0 -34 -20
-64 -47 -70 -15 -4 -36 -9 -46 -12 -16 -5 -18 -1 -15 32 3 35 6 39 43 50 54
17 65 17 65 0z"/>
<path d="M3781 5703 c-6 -21 -11 -50 -11 -64 0 -31 -13 -43 -54 -53 l-29 -7 6
45 c8 59 1 59 -16 -1 -12 -41 -18 -48 -53 -59 l-39 -12 43 -1 c63 -2 56 -26
-10 -37 -52 -8 -52 -8 -16 -12 l38 -3 -42 -32 c-95 -73 -144 -176 -136 -291 7
-115 82 -227 186 -278 68 -33 187 -37 263 -9 108 41 186 136 208 254 34 184
-101 365 -286 384 -47 5 -53 8 -53 29 0 13 10 30 22 38 20 14 20 16 4 16 -17
0 -18 6 -13 65 4 36 4 65 2 65 -2 0 -9 -17 -14 -37z m-21 -153 c0 -11 -6 -20
-12 -20 -7 0 -23 -3 -35 -6 -18 -5 -23 -2 -23 14 0 20 15 28 53 31 11 1 17 -6
17 -19z m163 -69 c57 -28 119 -87 149 -143 19 -36 23 -58 23 -138 0 -79 -4
-102 -23 -137 -56 -107 -142 -163 -258 -171 -94 -6 -157 15 -224 75 -76 68
-104 129 -104 228 -1 68 3 89 27 137 34 69 100 130 171 158 67 27 173 23 239
-9z"/>
<path d="M3696 5474 c-72 -23 -156 -110 -180 -188 -57 -181 66 -360 255 -374
95 -7 159 17 224 82 91 91 112 219 54 334 -66 132 -207 190 -353 146z m44
-109 c23 -41 43 -75 46 -75 3 0 16 7 30 16 23 15 26 15 43 0 18 -17 19 -16 26
14 5 22 17 36 45 50 22 11 41 20 44 20 2 0 -2 -24 -10 -52 -7 -29 -14 -58 -14
-64 0 -5 28 -19 62 -30 l62 -20 -38 -23 c-28 -17 -46 -22 -72 -18 -32 5 -34 4
-28 -17 4 -19 0 -25 -24 -35 -16 -7 -41 -9 -55 -6 -20 5 -29 2 -42 -19 -16
-24 -16 -28 -1 -51 26 -39 86 -29 86 15 0 13 56 50 75 50 14 0 2 -62 -17 -90
-81 -118 -270 -72 -230 56 6 19 7 34 4 32 -4 -2 -19 -10 -33 -17 l-27 -13 20
-35 c11 -18 19 -35 17 -37 -2 -2 -18 -11 -35 -19 l-31 -16 -48 85 c-26 47 -45
88 -41 91 3 4 40 25 81 48 l74 40 -28 48 c-20 34 -30 44 -38 36 -8 -8 -14 -5
-22 10 -19 34 24 100 66 101 6 0 30 -34 53 -75z"/>
<path d="M3756 5265 c-10 -8 -23 -16 -29 -18 -6 -2 -6 -10 1 -23 9 -17 5 -23
-39 -48 -27 -15 -47 -32 -43 -37 3 -6 24 1 50 16 35 21 47 23 62 14 15 -9 24
-8 45 6 25 16 26 19 13 43 -29 55 -39 63 -60 47z"/>
<path d="M2346 5410 c3 -19 8 -42 10 -51 3 -11 -6 -21 -27 -29 -28 -12 -32
-11 -42 5 -13 23 -82 95 -71 75 4 -8 21 -34 37 -58 16 -24 27 -45 25 -46 -1
-2 -18 -11 -35 -20 -45 -23 -41 -28 7 -11 45 16 53 10 65 -56 6 -34 5 -35 -42
-57 -45 -20 -41 -21 29 -6 24 6 27 3 36 -37 l10 -44 1 50 c1 47 3 52 31 62 28
11 31 9 45 -18 20 -38 26 -37 14 3 -5 17 -8 33 -6 34 1 1 17 9 35 18 38 20 43
30 6 16 -43 -17 -52 -12 -68 37 -9 26 -16 48 -16 50 0 1 41 23 90 48 50 25 90
47 90 50 0 5 -73 -23 -148 -55 l-43 -19 -10 27 c-24 61 -29 68 -23 32z m39
-141 c9 -28 15 -52 13 -54 -1 -2 -14 -6 -28 -10 -24 -6 -27 -2 -41 44 -15 48
-14 50 5 60 32 15 33 14 51 -40z"/>
<path d="M1613 5335 c52 -28 54 -33 31 -77 -13 -25 -20 -29 -42 -25 l-26 5 24
-18 c22 -17 23 -18 7 -64 -19 -56 -8 -53 18 4 16 37 22 41 44 35 34 -9 37 -13
23 -27 -7 -7 -12 -17 -12 -22 1 -6 9 -1 19 11 15 18 26 22 53 18 28 -5 30 -4
11 4 -29 13 -29 23 3 61 23 26 32 30 58 25 l31 -6 -27 16 c-25 14 -26 18 -16
46 14 40 4 48 -12 9 -14 -33 -18 -34 -73 -19 -34 9 -36 12 -27 32 11 21 10 21
-4 3 -14 -17 -20 -18 -57 -7 -23 7 -48 15 -58 17 -9 3 5 -6 32 -21z m125 -50
c27 -8 27 -13 -2 -49 -20 -24 -28 -27 -54 -22 l-30 7 16 40 c10 27 20 38 31
35 9 -2 26 -7 39 -11z"/>
<path d="M3069 5123 c-19 -88 -23 -93 -77 -94 l-47 -1 44 -9 c53 -10 55 -12
46 -38 -4 -15 -15 -21 -35 -21 -16 0 -32 -4 -35 -10 -4 -6 7 -10 24 -10 17 0
31 -1 31 -2 0 -2 -7 -28 -15 -58 -21 -80 -18 -84 12 -12 21 53 29 62 50 62 26
0 27 -6 8 -95 -5 -19 18 26 36 73 7 18 16 22 54 22 28 0 44 4 40 10 -3 6 -22
10 -41 10 -26 0 -34 4 -33 18 1 39 17 57 60 68 l44 12 -39 1 c-36 1 -38 3 -32
26 17 71 16 80 -3 40 -11 -22 -22 -48 -25 -57 -3 -13 -14 -18 -36 -18 -25 0
-30 3 -26 18 8 30 18 122 13 122 -3 0 -11 -26 -18 -57z m45 -130 c-10 -41 -13
-44 -37 -37 -29 9 -29 8 -18 38 8 19 18 26 36 26 23 0 25 -3 19 -27z"/>
<path d="M5861 5609 c-1 -22 -7 -28 -40 -37 -27 -6 -43 -6 -50 1 -8 8 -11 6
-11 -5 0 -10 -14 -21 -36 -28 -44 -15 -40 -23 6 -10 23 7 38 6 47 -1 24 -20
15 -39 -19 -40 -18 -1 -44 -5 -58 -10 -29 -10 141 -4 176 6 16 5 27 -1 43 -21
22 -27 26 -24 12 11 -7 16 -3 22 23 33 l31 12 -36 -4 c-31 -4 -38 -1 -48 20
-6 14 -11 27 -11 29 0 2 30 13 66 25 36 12 63 24 60 27 -5 5 -64 -7 -119 -23
-11 -4 -20 2 -26 18 -10 23 -10 23 -10 -3z m17 -73 c10 -23 9 -25 -20 -32 -24
-5 -35 -2 -45 12 -17 24 -16 32 5 37 37 10 49 6 60 -17z"/>
<path d="M6295 5315 c19 -51 18 -52 -35 -70 -28 -9 -54 -15 -57 -12 -2 3 -11
23 -19 44 l-15 38 5 -48 c6 -46 5 -48 -25 -59 -39 -13 -32 -20 9 -9 27 8 34 7
42 -9 16 -31 12 -37 -35 -50 -60 -17 -51 -24 11 -10 45 10 49 9 66 -12 l19
-23 -7 27 c-5 25 -3 27 52 39 53 12 58 11 68 -5 6 -10 17 -25 24 -34 10 -14
10 -12 2 11 -17 47 -12 53 50 72 77 23 71 30 -9 12 -59 -14 -62 -14 -76 6 -8
12 -11 24 -7 28 4 4 45 19 92 35 107 35 84 43 -30 10 -46 -14 -85 -24 -85 -23
-1 1 -12 16 -25 32 -14 18 -20 22 -15 10z m45 -94 c14 -28 16 -27 -46 -40 -47
-11 -58 -11 -65 0 -16 25 -9 35 29 46 56 16 70 15 82 -6z"/>
<path d="M5902 5225 c-55 -86 -64 -95 -92 -95 -16 0 -30 2 -30 5 0 3 11 29 25
58 27 54 21 50 -32 -27 -29 -40 -37 -46 -70 -47 -21 0 -47 -4 -58 -9 -15 -6
-6 -9 33 -9 l53 -1 -16 -29 c-18 -37 -29 -44 -80 -52 l-40 -6 43 -2 42 -1 -30
-60 c-17 -33 -28 -60 -26 -60 2 0 21 27 42 60 35 53 43 60 72 60 l33 0 -26
-42 c-34 -56 -86 -158 -81 -158 2 0 34 47 71 105 65 101 68 105 104 106 20 0
54 4 76 8 37 8 35 9 -27 10 -38 0 -68 4 -68 7 0 3 8 19 17 35 12 20 29 31 58
38 39 9 40 9 7 10 l-33 1 52 95 c28 52 49 95 46 95 -3 0 -32 -43 -65 -95z
m-82 -120 c0 -4 -7 -19 -15 -34 -15 -30 -33 -41 -66 -41 -17 0 -18 3 -8 23 20
38 41 57 66 57 12 0 23 -2 23 -5z"/>
<path d="M5240 4841 c-10 -12 -34 -21 -67 -25 -46 -6 -53 -4 -54 11 0 16 -1
16 -8 -1 -5 -14 -28 -25 -77 -37 l-69 -18 63 5 c68 6 72 3 47 -46 -11 -21 -25
-31 -53 -36 -55 -10 -77 -27 -24 -20 45 7 50 2 29 -29 -7 -11 -24 -38 -37 -60
l-24 -40 23 20 c12 11 36 40 53 66 25 40 36 48 70 53 22 4 42 5 44 4 1 -2 -10
-24 -25 -48 -15 -25 -37 -63 -50 -85 l-23 -40 32 35 c17 19 46 59 63 87 27 45
38 54 72 62 39 9 39 9 8 10 -18 1 -33 3 -33 6 0 2 10 24 22 49 18 38 27 46 65
55 54 14 56 23 3 15 -35 -6 -39 -4 -34 10 8 21 3 20 -16 -3z m-43 -83 c-22
-37 -31 -44 -66 -49 -46 -6 -47 -5 -26 44 12 29 21 36 47 40 75 9 73 11 45
-35z"/>
<path d="M4570 4407 c8 -24 7 -29 -13 -36 -12 -5 -38 -15 -57 -23 -34 -15 -36
-14 -62 16 -20 22 -26 25 -21 11 3 -11 11 -26 16 -33 12 -15 14 -14 -50 -46
-29 -14 -53 -28 -53 -31 0 -2 27 6 61 17 42 14 64 17 71 10 15 -15 2 -29 -32
-37 -16 -4 -32 -10 -35 -15 -3 -4 17 -2 45 5 48 13 51 12 66 -8 l16 -22 -7 22
c-7 25 6 33 71 47 28 6 34 3 53 -26 19 -28 21 -29 15 -8 -13 47 -10 54 36 71
49 19 36 25 -20 9 -29 -8 -37 -7 -47 7 -19 24 -16 38 10 52 20 11 20 11 -7 6
-24 -5 -34 -1 -48 17 l-18 23 10 -28z m24 -63 c11 -28 7 -32 -46 -48 -40 -12
-54 -12 -60 -3 -13 20 -10 22 40 44 59 26 59 26 66 7z"/>
<path d="M860 4345 c-35 -35 -60 -50 -123 -71 -84 -28 -98 -44 -21 -25 25 7
49 10 51 7 3 -3 -10 -23 -28 -45 -34 -40 -77 -59 -100 -45 -8 4 -9 3 -5 -4 4
-7 16 -12 27 -12 23 0 25 -13 4 -30 -8 -7 -15 -18 -15 -24 0 -6 13 3 29 20 21
23 41 34 72 38 l44 7 -55 -52 c-60 -56 -29 -44 49 20 29 24 67 42 110 53 l66
17 -52 -3 c-59 -3 -59 -7 3 74 22 30 49 69 59 85 l17 30 -28 -31 c-21 -23 -41
-34 -73 -38 l-43 -7 32 41 c41 52 35 51 -20 -5z m32 -72 c-64 -81 -79 -93
-117 -93 l-37 0 41 47 c35 41 82 69 139 82 2 1 -10 -16 -26 -36z"/>
<path d="M3670 4121 c-74 -38 -75 -38 -118 -24 -50 18 -67 12 -22 -7 16 -7 30
-16 30 -20 0 -4 -37 -28 -82 -54 l-82 -46 -45 27 c-25 14 -57 33 -71 41 l-25
14 26 -23 c14 -13 40 -35 58 -49 l34 -26 -56 -34 c-74 -44 -65 -51 11 -10 44
25 66 31 86 26 33 -8 27 -20 -25 -46 -60 -31 -47 -33 22 -3 l60 26 56 -17 c65
-21 81 -15 23 8 -22 9 -40 18 -40 21 0 3 43 25 95 49 l94 44 62 -19 c34 -11
64 -18 66 -16 2 2 -20 14 -49 26 -47 20 -51 24 -35 34 47 30 48 36 5 17 -44
-17 -51 -18 -83 -4 -19 8 -35 16 -35 19 0 2 27 20 60 41 33 20 60 38 60 40 0
6 1 6 -80 -35z m-27 -78 c9 -3 17 -9 17 -13 0 -15 -188 -92 -209 -85 -12 3
-21 9 -21 13 0 14 165 101 180 96 8 -4 23 -9 33 -11z"/>
<path d="M431 3840 c6 -14 20 -37 31 -52 18 -26 18 -27 -3 -33 -16 -5 -31 2
-61 31 l-41 39 26 -40 c20 -29 23 -41 14 -47 -8 -5 -7 -8 6 -8 16 0 66 -46 67
-62 0 -3 -19 -13 -42 -22 l-43 -15 56 5 56 6 33 -42 c39 -49 54 -46 16 4 -31
41 -32 46 -8 46 9 0 32 -17 50 -37 l34 -38 -22 38 c-13 21 -19 42 -14 46 5 5
31 14 57 21 65 17 53 24 -20 10 -57 -10 -58 -10 -80 17 -13 16 -23 31 -23 34
0 3 28 13 61 23 80 22 69 32 -16 16 -64 -12 -67 -12 -82 9 -8 12 -26 34 -40
49 l-24 27 12 -25z m82 -129 c21 -36 21 -41 2 -41 -18 0 -66 51 -58 62 10 17
40 6 56 -21z"/>
<path d="M2143 3716 c-14 -18 -45 -31 -118 -50 -142 -38 -147 -48 -10 -20 42
9 78 14 80 12 2 -1 -4 -12 -14 -24 -11 -14 -42 -27 -94 -38 -42 -10 -77 -19
-77 -22 0 -2 30 -2 68 2 l67 7 -30 -33 c-21 -23 -24 -30 -10 -22 11 5 31 22
44 36 17 18 35 26 58 26 32 0 43 -12 23 -25 -5 -3 -24 -27 -41 -53 -29 -45
-27 -44 34 21 43 44 73 67 88 68 20 0 21 2 6 7 -16 7 -14 12 14 50 17 23 38
42 47 43 11 0 12 2 4 6 -6 2 -9 10 -5 16 4 8 1 7 -9 -1 -9 -7 -39 -15 -68 -19
-51 -6 -52 -6 -41 15 15 29 7 28 -16 -2z m56 -66 c-26 -32 -39 -40 -66 -40
-37 0 -41 8 -15 39 14 17 59 34 105 40 4 1 -7 -17 -24 -39z"/>
</g>
</svg>
